# xmcd
#
# Track frame offsets: 
#        150
#        26137
#        39544
#        58280
#        78755
#        95735
#        120221
#        143822
#        166795
#        184259
#        199620
#        224356
#        269418
#        270654
#
# Disc length: 3614 seconds
#
# Revision: 2
# Processed by: cddbd v1.5.2PL0 Copyright (c) Steve Scherf et al.
# Submitted via: ExactAudioCopyFreeDBPlugin 1.0
#
DISCID=c70e1c0e
DTITLE=群星 - DTS51演示碟2008
DYEAR=2008
DGENRE=DTS
TTITLE0=怀念战友
TTITLE1=雪地上的回忆
TTITLE2=吐鲁番的葡萄熟了
TTITLE3=大敦煌
TTITLE4=笑红尘
TTITLE5=东风破
TTITLE6=很久很久……以前
TTITLE7=天路
TTITLE8=重归故里
TTITLE9=我和草原有个约会
TTITLE10=蒙古人
TTITLE11=云南音诗之[火把节]
TTITLE12=13
TTITLE13=14
EXTD=
EXTT0=
EXTT1=
EXTT2=
EXTT3=
EXTT4=
EXTT5=
EXTT6=
EXTT7=
EXTT8=
EXTT9=
EXTT10=
EXTT11=
EXTT12=
EXTT13=
PLAYORDER=
